#!OML:ASF H:\ManfredETheater\Project 1\Capture day 1\Session 1\subject.ASF
:FULLY-SPECIFIED
:DEGREES
231
root -13.5534 17.1655 -44.7123 -159.52 -24.3035 -177.618
lowerback 12.9384 2.14343 6.19094
upperback -1.92907 3.96744 2.66458
thorax -9.13553 1.60148 -1.42237
lowerneck -20.8108 -1.52881 -2.13934
upperneck -0.320615 -1.93354 -4.29753
head 3.1166 -1.48709 -1.17634
rclavicle -2.26615e-014 3.18055e-015
rhumerus -42.9471 27.6065 -92.0998
rradius 138.208
rwrist -3.13325
rhand -22.4511 13.0271
rfingers 7.12502
rthumb 3.97312 -16.9156
lclavicle -2.26615e-014 3.18055e-015
lhumerus -90.3969 -15.657 95.6124
lradius 100.333
lwrist 25.8533
lhand -14.2736 -20.0939
lfingers 7.12502
lthumb 11.8653 9.54987
rfemur 18.8204 3.68649 22.3937
rtibia 9.85972e-014
rfoot 18.8208 -3.84394
rtoes -34.8052
lfemur -70.5096 3.12374 -16.4306
ltibia 66.818
lfoot -14.8075 -10.1795
ltoes -14.2079
232
root -13.8125 17.2138 -45.2134 -160.154 -24.532 -177.476
lowerback 12.7114 2.31616 6.27248
upperback -1.75193 4.17548 2.67573
thorax -8.7915 1.71104 -1.48157
lowerneck -21.0899 -1.78965 -2.37964
upperneck -0.01784 -2.19406 -4.08941
head 3.25005 -1.60805 -1.10252
rclavicle 5.88403e-014 3.02153e-014
rhumerus -42.9344 27.0732 -91.0918
rradius 137.925
rwrist -4.19655
rhand -22.7843 12.4287
rfingers 7.12502
rthumb 3.65142 -17.5197
lclavicle 5.88403e-014 3.02153e-014
lhumerus -90.534 -15.0402 94.4638
lradius 100.467
lwrist 27.036
lhand -13.1271 -21.545
lfingers 7.12502
lthumb 12.9707 8.03183
rfemur 20.5194 4.40355 22.5693
rtibia 1.90833e-014
rfoot 22.9104 -3.65711
rtoes -32.4851
lfemur -70.006 2.82535 -16.3625
ltibia 62.8236
lfoot -15.0647 -9.61754
ltoes -14.627
233
root -14.0679 17.254 -45.709 -160.816 -24.7908 -177.207
lowerback 12.5481 2.4596 6.47458
upperback -1.59478 4.36811 2.70243
thorax -8.50051 1.80491 -1.58917
lowerneck -21.3254 -2.03033 -2.59522
upperneck 0.261148 -2.43618 -3.85636
head 3.37136 -1.71643 -1.02308
rclavicle -3.18055e-014 4.77083e-015
rhumerus -42.8815 26.2615 -90.0914
rradius 137.047
rwrist -5.10511
rhand -22.9036 11.5812
rfingers 7.12502
rthumb 3.53621 -18.3692
lclavicle -3.18055e-014 4.77083e-015
lhumerus -90.5016 -14.4125 93.2999
lradius 100.547
lwrist 27.9557
lhand -11.9289 -23.1838
lfingers 7.12502
lthumb 14.1255 6.316
rfemur 22.2088 5.10476 22.9673
rtibia 9.54166e-015
rfoot 25.7175 -3.17851
rtoes -30.7031
lfemur -69.4306 2.59848 -16.2065
ltibia 58.8658
lfoot -15.148 -8.96288
ltoes -14.6857
234
root -14.3184 17.2838 -46.1968 -161.493 -25.1198 -176.798
lowerback 12.4559 2.56059 6.82081
upperback -1.47028 4.53236 2.7497
thorax -8.27879 1.87509 -1.75192
lowerneck -21.5344 -2.25118 -2.78067
upperneck 0.512713 -2.66274 -3.60676
head 3.48155 -1.81472 -0.941753
rclavicle 5.08889e-014 1.27222e-014
rhumerus -42.8202 25.204 -89.1688
rradius 135.623
rwrist -5.64787
rhand -22.7736 10.572
rfingers 7.12502
rthumb 3.66177 -19.3763
lclavicle 5.08889e-014 1.27222e-014
lhumerus -90.3238 -13.7651 92.1568
lradius 100.612
lwrist 28.473
lhand -10.7568 -24.8389
lfingers 7.12502
lthumb 15.2548 4.57864
rfemur 23.8817 5.74499 23.6172
rtibia 7.95139e-014
rfoot 27.3102 -2.74321
rtoes -29.6875
lfemur -68.8608 2.44338 -15.9846
ltibia 55.0735
lfoot -15.0754 -8.22278
ltoes -14.5062
235
root -14.5624 17.3014 -46.6761 -162.171 -25.5179 -176.266
lowerback 12.4039 2.61761 7.27791
upperback -1.35841 4.65685 2.81786
thorax -8.08922 1.91962 -1.94756
lowerneck -21.7253 -2.44518 -2.92502
upperneck 0.699422 -2.87153 -3.35169
head 3.56969 -1.90327 -0.863071
rclavicle 1.39149e-014 -4.13472e-014
rhumerus -42.7248 23.9648 -88.3618
rradius 133.707
rwrist -5.70858
rhand -22.428 9.47916
rfingers 7.12502
rthumb 3.99545 -20.4631
lclavicle 1.39149e-014 -4.13472e-014
lhumerus -89.9748 -13.0801 91.0327
lradius 100.631
lwrist 28.5845
lhand -9.49413 -26.7394
lfingers 7.12502
lthumb 16.4707 2.58143
rfemur 25.5298 6.31026 24.5023
rtibia -5.40694e-014
rfoot 28.0661 -2.65483
rtoes -29.4428
lfemur -68.3348 2.36771 -15.7335
ltibia 51.5586
lfoot -14.8467 -7.44954
ltoes -13.956
236
root -14.8005 17.3062 -47.147 -162.847 -25.9784 -175.633
lowerback 12.3799 2.62869 7.81653
upperback -1.25256 4.73317 2.90583
thorax -7.9206 1.9365 -2.15919
lowerneck -21.9008 -2.60422 -3.01651
upperneck 0.808557 -3.0556 -3.10746
head 3.6316 -1.98002 -0.793066
rclavicle -4.6118e-014 -2.8625e-014
rhumerus -42.602 22.6132 -87.7045
rradius 131.372
rwrist -5.31533
rhand -21.9537 8.3594
rfingers 7.12502
rthumb 4.45345 -21.5738
lclavicle -4.6118e-014 -2.8625e-014
lhumerus -89.4559 -12.3315 89.94
lradius 100.561
lwrist 28.2652
lhand -8.03988 -29.0682
lfingers 7.12502
lthumb 17.8705 0.130717
rfemur 23.9374 6.76882 25.5945
rtibia 6.40122
rfoot 25.3055 -3.19242
rtoes -29.5868
lfemur -67.8797 2.37936 -15.5106
ltibia 48.4391
lfoot -14.4822 -6.70668
ltoes -13.0722
237
root -15.0326 17.298 -47.6115 -163.509 -26.448 -174.967
lowerback 12.3865 2.61372 8.33885
upperback -1.14931 4.77465 3.00215
thorax -7.77661 1.93697 -2.34798
lowerneck -22.0546 -2.73185 -3.06007
upperneck 0.840368 -3.2181 -2.88051
head 3.66604 -2.04708 -0.732974
rclavicle -1.59028e-014 -3.65764e-014
rhumerus -42.4742 21.1906 -87.2045
rradius 128.7
rwrist -4.6032
rhand -21.4322 7.27252
rfingers 7.12502
rthumb 4.95704 -22.6495
lclavicle -1.59028e-014 -3.65764e-014
lhumerus -88.7736 -11.5194 88.879
lradius 100.336
lwrist 27.5302
lhand -6.22921 -32.1155
lfingers 7.12502
lthumb 19.612 -3.08477
rfemur 20.9712 7.19686 26.7667
rtibia 15.4319
rfoot 21.4957 -4.62919
rtoes -29.6439
lfemur -67.4898 2.50224 -15.4116
ltibia 45.7826
lfoot -13.9905 -6.04615
ltoes -12.0079
238
root -15.2597 17.2813 -48.0733 -164.151 -26.8709 -174.339
lowerback 12.4201 2.5911 8.7455
upperback -1.03933 4.79175 3.09568
thorax -7.65122 1.93129 -2.47306
lowerneck -22.1642 -2.83213 -3.06446
upperneck 0.796368 -3.36204 -2.66795
head 3.67014 -2.1055 -0.680242
rclavicle -4.05521e-014 3.33958e-014
rhumerus -42.3607 19.7445 -86.8577
rradius 125.759
rwrist -3.76727
rhand -20.9854 6.25204
rfingers 7.12502
rthumb 5.38842 -23.6594
lclavicle -4.05521e-014 3.33958e-014
lhumerus -87.9544 -10.647 87.9031
lradius 99.9297
lwrist 26.3177
lhand -4.22836 -35.577
lfingers 7.12502
lthumb 21.5347 -6.75414
rfemur 18.9357 7.16751 27.7149
rtibia 22.4257
rfoot 19.2531 -6.04511
rtoes -29.4721
lfemur -67.0879 2.70616 -15.4438
ltibia 43.645
lfoot -13.4259 -5.5347
ltoes -10.6565
239
root -15.4828 17.2554 -48.5338 -164.749 -27.2451 -173.815
lowerback 12.4638 2.56267 8.9826
upperback -0.924606 4.77873 3.17616
thorax -7.54122 1.91936 -2.51439
lowerneck -22.1955 -2.9223 -3.05545
upperneck 0.679235 -3.50417 -2.44911
head 3.64045 -2.16181 -0.625186
rclavicle -1.59028e-015 2.38542e-015
rhumerus -42.2749 18.2968 -86.6272
rradius 122.615
rwrist -2.97362
rhand -20.6358 5.29339
rfingers 7.12502
rthumb 5.72602 -24.6092
lclavicle -1.59028e-015 2.38542e-015
lhumerus -87.0189 -9.72829 87.0524
lradius 99.3226
lwrist 24.6221
lhand -2.38714 -39.4901
lfingers 7.12502
lthumb 23.302 -10.8802
rfemur 17.0674 6.96772 28.4899
rtibia 28.9182
rfoot 17.8314 -7.3989
rtoes -29.0385
lfemur -66.6723 2.94664 -15.6436
ltibia 42.0231
lfoot -12.7 -5.19712
ltoes -9.05529
240
root -15.7036 17.2214 -48.9957 -165.302 -27.5362 -173.466
lowerback 12.5288 2.54189 8.99166
upperback -0.810972 4.74819 3.22324
thorax -7.46093 1.90915 -2.46485
lowerneck -22.0901 -3.00958 -3.04054
upperneck 0.496083 -3.65057 -2.22142
head 3.57116 -2.21761 -0.565245
rclavicle -1.59028e-015 3.02153e-014
rhumerus -42.2759 16.8562 -86.5024
rradius 119.32
rwrist -2.36924
rhand -20.4312 4.39047
rfingers 7.12502
rthumb 5.92353 -25.5067
lclavicle -1.59028e-015 3.02153e-014
lhumerus -86.0365 -8.81359 86.4444
lradius 98.7651
lwrist 23.1345
lhand -0.960879 -42.6178
lfingers 7.12502
lthumb 24.6697 -14.188
rfemur 15.3895 6.64635 29.018
rtibia 34.8983
rfoot 17.0984 -8.52454
rtoes -28.1751
lfemur -66.2151 3.16105 -15.9796
ltibia 41.0292
lfoot -11.9111 -4.99861
ltoes -7.47382
241
root -15.9231 17.1815 -49.4619 -165.806 -27.7083 -173.355
lowerback 12.6226 2.54057 8.70679
upperback -0.689897 4.70699 3.22279
thorax -7.40826 1.90698 -2.30472
lowerneck -21.8516 -3.08907 -3.00682
upperneck 0.262858 -3.79476 -2.00031
head 3.4675 -2.27083 -0.506844
rclavicle -7.79236e-014 -2.78299e-014
rhumerus -42.3654 15.4335 -86.4527
rradius 115.912
rwrist -2.05974
rhand -20.3759 3.6684
rfingers 7.12502
rthumb 5.97695 -26.2273
lclavicle -7.79236e-014 -2.78299e-014
lhumerus -85.0079 -7.94761 86.0659
lradius 98.2697
lwrist 21.7473
lhand 0.115225 -44.8248
lfingers 7.12502
lthumb 25.7007 -16.5399
rfemur 13.6489 6.25002 29.2419
rtibia 40.9579
rfoot 16.5189 -9.30253
rtoes -27.1354
lfemur -65.4585 3.33067 -16.4356
ltibia 40.2102
lfoot -10.6507 -4.96276
ltoes -6.41097
242
root -16.1375 17.1505 -49.9249 -166.382 -27.8125 -172.862
lowerback 12.6587 2.59564 8.61282
upperback -0.499305 4.75002 3.32845
thorax -7.23359 1.94074 -2.1451
lowerneck -22.1176 -3.06254 -2.85404
upperneck 0.156498 -3.8117 -1.9303
head 3.47043 -2.28113 -0.514146
rclavicle 9.10434e-014 4.77083e-014
rhumerus -42.2281 14.0865 -86.3962
rradius 112.63
rwrist -1.3136
rhand -20.4474 2.63968
rfingers 7.12502
rthumb 5.90792 -27.258
lclavicle 9.10434e-014 4.77083e-014
lhumerus -83.7346 -6.79605 84.8113
lradius 96.4575
lwrist 17.7904
lhand 3.80219 -52.1785
lfingers 7.12502
lthumb 29.2268 -24.454
rfemur 12.2502 6.16921 29.9084
rtibia 46.7919
rfoot 16.5943 -10.7457
rtoes -22.7698
lfemur -65.1575 3.69805 -16.523
ltibia 39.774
lfoot -11.2059 -4.71188
ltoes -5.129
243
root -16.3557 17.0568 -50.3853 -166.69 -28.0598 -173.226
lowerback 12.695 2.54627 7.97236
upperback -0.35396 4.58925 3.2446
thorax -7.15289 1.89861 -1.85434
lowerneck -21.4306 -3.36042 -3.10474
upperneck -0.296324 -4.20715 -1.38617
head 3.24715 -2.43574 -0.321253
rclavicle 2.22639e-014 -7.07673e-014
rhumerus -42.3317 12.6096 -86.2138
rradius 109.038
rwrist -1.46466
rhand -19.968 1.67191
rfingers 7.12502
rthumb 6.37075 -28.2123
lclavicle 2.22639e-014 -7.07673e-014
lhumerus -82.3877 -5.97475 84.6156
lradius 94.8386
lwrist 12.8752
lhand 0.627112 -57.5653
lfingers 7.12502
lthumb 26.1909 -29.3523
rfemur 10.4698 5.35404 29.5549
rtibia 52.702
rfoot 15.8326 -10.4658
rtoes -23.4708
lfemur -64.5573 3.70004 -17.6112
ltibia 39.7013
lfoot -8.55247 -5.22725
ltoes -1.49405
